<mxfile host="app.diagrams.net" modified="2024-07-16T09:27:37.514Z" agent="Mozilla/5.0 (Windows NT 10.0; Win64; x64) AppleWebKit/537.36 (KHTML, like Gecko) Chrome/126.0.0.0 Safari/537.36" etag="bDBQB99dU-wcHP3EP7WA" version="24.6.5" type="device">
  <diagram name="Page-1" id="Mw_gzZhNQkYoTkWqv4XC">
    <mxGraphModel dx="1050" dy="1657" grid="1" gridSize="10" guides="1" tooltips="1" connect="1" arrows="1" fold="1" page="1" pageScale="1" pageWidth="850" pageHeight="1100" math="0" shadow="0">
      <root>
        <mxCell id="0" />
        <mxCell id="1" parent="0" />
        <mxCell id="UsyyJnBBjxE21OxWlk4a-22" value="" style="edgeStyle=orthogonalEdgeStyle;rounded=0;orthogonalLoop=1;jettySize=auto;html=1;" edge="1" parent="1" source="UsyyJnBBjxE21OxWlk4a-1" target="UsyyJnBBjxE21OxWlk4a-4">
          <mxGeometry relative="1" as="geometry" />
        </mxCell>
        <mxCell id="UsyyJnBBjxE21OxWlk4a-1" value="" style="image;aspect=fixed;html=1;points=[];align=center;fontSize=12;image=img/lib/azure2/analytics/Stream_Analytics_Jobs.svg;" vertex="1" parent="1">
          <mxGeometry x="477.4" y="174.16" width="68" height="57.99999999999999" as="geometry" />
        </mxCell>
        <mxCell id="UsyyJnBBjxE21OxWlk4a-2" value="" style="image;aspect=fixed;html=1;points=[];align=center;fontSize=12;image=img/lib/azure2/analytics/Azure_Databricks.svg;" vertex="1" parent="1">
          <mxGeometry x="560" y="45.03" width="60" height="64.97" as="geometry" />
        </mxCell>
        <mxCell id="UsyyJnBBjxE21OxWlk4a-21" value="" style="edgeStyle=orthogonalEdgeStyle;rounded=0;orthogonalLoop=1;jettySize=auto;html=1;" edge="1" parent="1" source="UsyyJnBBjxE21OxWlk4a-3" target="UsyyJnBBjxE21OxWlk4a-1">
          <mxGeometry relative="1" as="geometry" />
        </mxCell>
        <mxCell id="UsyyJnBBjxE21OxWlk4a-3" value="" style="image;aspect=fixed;html=1;points=[];align=center;fontSize=12;image=img/lib/azure2/iot/Event_Hubs.svg;" vertex="1" parent="1">
          <mxGeometry x="353" y="170" width="75.53" height="67.63" as="geometry" />
        </mxCell>
        <mxCell id="UsyyJnBBjxE21OxWlk4a-4" value="" style="image;aspect=fixed;html=1;points=[];align=center;fontSize=12;image=img/lib/azure2/analytics/Power_BI_Embedded.svg;" vertex="1" parent="1">
          <mxGeometry x="630" y="161" width="51" height="68" as="geometry" />
        </mxCell>
        <mxCell id="UsyyJnBBjxE21OxWlk4a-5" value="" style="image;aspect=fixed;html=1;points=[];align=center;fontSize=12;image=img/lib/azure2/security/Key_Vaults.svg;" vertex="1" parent="1">
          <mxGeometry x="350.77" y="282.63" width="68" height="68" as="geometry" />
        </mxCell>
        <mxCell id="UsyyJnBBjxE21OxWlk4a-41" style="edgeStyle=orthogonalEdgeStyle;rounded=0;orthogonalLoop=1;jettySize=auto;html=1;" edge="1" parent="1" source="UsyyJnBBjxE21OxWlk4a-6" target="UsyyJnBBjxE21OxWlk4a-1">
          <mxGeometry relative="1" as="geometry">
            <Array as="points">
              <mxPoint x="395" y="90" />
              <mxPoint x="511" y="90" />
            </Array>
          </mxGeometry>
        </mxCell>
        <mxCell id="UsyyJnBBjxE21OxWlk4a-6" value="" style="image;aspect=fixed;html=1;points=[];align=center;fontSize=12;image=img/lib/azure2/storage/Storage_Accounts.svg;" vertex="1" parent="1">
          <mxGeometry x="357.5" y="10" width="75" height="60" as="geometry" />
        </mxCell>
        <mxCell id="UsyyJnBBjxE21OxWlk4a-14" value="" style="edgeStyle=orthogonalEdgeStyle;rounded=0;orthogonalLoop=1;jettySize=auto;html=1;" edge="1" parent="1" source="UsyyJnBBjxE21OxWlk4a-7" target="UsyyJnBBjxE21OxWlk4a-12">
          <mxGeometry relative="1" as="geometry" />
        </mxCell>
        <mxCell id="UsyyJnBBjxE21OxWlk4a-7" value="" style="shape=mxgraph.signs.transportation.truck_1;html=1;pointerEvents=1;fillColor=#000000;strokeColor=none;verticalLabelPosition=bottom;verticalAlign=top;align=center;sketch=0;" vertex="1" parent="1">
          <mxGeometry x="10" y="110" width="99" height="51" as="geometry" />
        </mxCell>
        <mxCell id="UsyyJnBBjxE21OxWlk4a-15" value="" style="edgeStyle=orthogonalEdgeStyle;rounded=0;orthogonalLoop=1;jettySize=auto;html=1;" edge="1" parent="1" source="UsyyJnBBjxE21OxWlk4a-8" target="UsyyJnBBjxE21OxWlk4a-12">
          <mxGeometry relative="1" as="geometry" />
        </mxCell>
        <mxCell id="UsyyJnBBjxE21OxWlk4a-8" value="" style="shape=mxgraph.signs.transportation.truck_1;html=1;pointerEvents=1;fillColor=#000000;strokeColor=none;verticalLabelPosition=bottom;verticalAlign=top;align=center;sketch=0;" vertex="1" parent="1">
          <mxGeometry y="200" width="99" height="51" as="geometry" />
        </mxCell>
        <mxCell id="UsyyJnBBjxE21OxWlk4a-16" style="edgeStyle=orthogonalEdgeStyle;rounded=0;orthogonalLoop=1;jettySize=auto;html=1;exitX=1;exitY=0.5;exitDx=0;exitDy=0;exitPerimeter=0;" edge="1" parent="1" source="UsyyJnBBjxE21OxWlk4a-9" target="UsyyJnBBjxE21OxWlk4a-12">
          <mxGeometry relative="1" as="geometry" />
        </mxCell>
        <mxCell id="UsyyJnBBjxE21OxWlk4a-9" value="" style="shape=mxgraph.signs.transportation.truck_1;html=1;pointerEvents=1;fillColor=#000000;strokeColor=none;verticalLabelPosition=bottom;verticalAlign=top;align=center;sketch=0;" vertex="1" parent="1">
          <mxGeometry y="270" width="99" height="51" as="geometry" />
        </mxCell>
        <mxCell id="UsyyJnBBjxE21OxWlk4a-12" value="" style="shape=image;verticalLabelPosition=bottom;labelBackgroundColor=default;verticalAlign=top;aspect=fixed;imageAspect=0;image=data:image/png,iVBORw0KGgoAAAANSUhEUgAAAYAAAAFgCAYAAACyg649AAAAAXNSR0IArs4c6QAAAARnQU1BAACxjwv8YQUAAAAJcEhZcwAADsMAAA7DAcdvqGQAAFpHSURBVHhe7b0HnJxXdf/9m952ZnZne9/VFvUuWc2yZcuWC8a4YhsImFAMgVAS/gkJeRPel0Ao+afQAmkYHGIMtsHGvcu2bHWrd620vZfZ6f295+4jNyztaueZfr58ht25s1pLM89zfuece+45moQATNYTjSfQ5w7hpRNuPHd8HCeHAjg9EkA4ll0fn1YDuGwGtJVZsKjGho2tTlw9rwQWg1b5CYZ5i4HJMD59/wm8fMqtrDBq8R8fasc1811wmHXKyh/Cd2UOMBmM4cUTE/jusz34z9f68fjhMRwd9Ged8SeETmHEG8H2zkk8sHcYP9zai394ugs7znoQycK/L8PkKzqNBsIfuyAsAFlOnzuMxw6N4t9e6cNv3hjG4QE/YmRlsxyKKyeDUezq9OC/Xh/A91/qxRNCuMZ8ESESLAQMk2pmcpexAGQpUeEtH+r34Vd7hvDv2/qxVYTIoWg8J4z/26G/rS8cE1HLKL4vooFfi6igYySIsPi3MAyTOsheTOdssQBkIfTB7en24Kev9uOnwvjv6/HmnOF/L/Z0efBPL/bgFzsGxb/JB08wprzCMIza6HUaaDQXTgKxAGQZnlBM5su//WwXHto3jMHJsPJKfjDkich01r++1INXTrsx7o8qrzAMoyYmnVYWZVwIrgLKEuhDoLQI5cm//kQnuseDckM1n6EqoU9tqMZty8pgM56/UoHJXwaFQ/DZB07g1dOTygoTFzd+TJjlZC3zj+9ow/sWuuC06JWVP4QFIEsg47+/14cP33sUw75I0h9+rjCvyop7NtTgY2sqhLcyXc0Ck294RcT7D8904Y0er7LCDHsj6J0Iwx9OLkX6b3e24XoSADMLQFZD5ZxHBvz4+H3HZMonIMSgUD4VnYhRl9Xa8PnLa3Hz0jJllSkU6DIPRnKvuCGVbOtwy/2/F05MKCuz476PzsMV7cUoMp0/umYByDB0wOvogA9/+bsO7Oj0yl37QvtETHotltXZ8OUr6nDtApeyyjCFCR2K+8HWXjx7bFxZmR0/uUtEAOJ+clwgAuBN4AxzpN+H/+/JTuzt8UkvqBDlmKqeDvT68MOX+/D6Gc4FM4waxONT53EuBAtABjnU58O/bxsQId+kDIMLmYD49+/t9uD/Pn8WB8X7QpERwzCzh9qvaKcpA2IByBDULoFCvedEmOcP86Eogt6H18948J+v9UlBYBhm9sh9FY4AshM63PXkkTG548+8RUC8HdTr6NXT7qSrIBimkJlJUR0LQAboGgvh+RPj2NM1Ket9mbcgp2XEGxVRQC+6x0NcHcIws0SeAp5GBFgA0gwZtBdPTuClk+MIRtnDPR8vCYF88eQYnxRmmFlC+4p0qOxCsACkGfJqt51248RQSHi7/Pafj1hCh59v78ehPq+sEmKYQiEh/5c8dMZmujQQW6A0Qobsf3cP4dUON6c2ZsCxwTCeODIuRZNhCgUyDdN57jNBVgFxM7js4UCfTxp/6vHPTI9Bp8X9QjDpjABvlTCFAg1yIe89WajNxnSOJgtAGtl+1sPG/yIIx+LyIj41HMCQl983pjAgo52uDAELQBrZ0TGJfhaAi0KrieGFE2PY3+NTVhgmvxGBryoRAPUAmu73sACkiV2dk+ia4ElYFwttlB8ZCKBngvcBmMKARmerUR4uq4Cm+T0sAGni+eNuDHsiquzuFxIJaOALR3B8yIvOsaCyyjD5Cxll7bTj3KeH2qlwL6AsYcfZcYz7+dTvbIgnNDjY58fhfr+ywjD5C9lsNQpBzVwFlHnoYzw+5EfneIjr2WeJuIxxaiiAk8O8D8AwMyUam/5EAQtAiqFxCy+ddMMTpI8i+bCuIBFv26iInjpGqBqIoygmvyEroVHBVkyX/ydYAFIMfQa7uzzc3TIJpsriNOgej+DEIKeBmPyGzLYaKSAatCT7AV0AFoAUQx/jsQFuZ6AG7kCUu6cyeQ/ZbDUiABo1O93ARxaAFBMRH0K/O4BojAUgWSYCMQx5WACY/IbOgM0kfTMdZhEB8CZwBqHURa87jEhcz/l/FRjzR9A3yecBmPxGrVYQE4HItJP1WABSCL35tHGZrmPd+Q5NDPMEuYU2k9+o1QrCZTVAzyeBM8t0OThm5lBvIN5MZ/IdtVpBTASiHAFkEnrvqZkZS4A6kJaynjL5jlqtILgXUIYh759SFmy0GIaZKWSU1WgFQdEyTwTLKBrodWoUdDEMUyiQyVbjHICRbA9XAWUOir7sZp2s62UYhkknU84/RwAZgww/1eIy6kCzAXRaHhLP5DfkL3IriDyAPkKLUUQAU0+ZJDHpAash+dCYYbIZusLVSAHRSNXphIQFIIXQDnx9sUmWdTHJU2Qyo9hqU54xTH5CmQM1IoBgJDZtFMCmKYWQANQJAbAY4uJDZc81WaisrcRiUJ4xTH5CuXs1WkFwGWgWQGpeX2KDkcOApKD8v9OigcumV1YYJj/RCZvBB8HyBPoYq51mmPQiClAhr1eoxBM6VNrNmFNmVlYYJj+hvpHTGe6ZwK0gsgCKABZVW2HQGYT5T17VC5kKuxGNLhYAJr+hZMF0hnsmTPg5Asg4dBDjlmVlcJg5dZEMJVYdGkpMKLXxHgCT36jVCoLOIPEeQIaht7+xxIy6YiNMeo4AZktrmQXtFRZVPCOGyWbIKKvRCsLPrSCyA2oHsazezlFAEsyvsskHw+Q7ZLLVagXBA2GyhHVNDpRYWQBmg92kQ5vw/qmklmGYmUHO/3RCwgKQJpbXFaGsyDCtIjN/SFOpGc3iYTXy5crkP2Qh1DgINpNZJHxHpYlqpxHzK61wWnTKCjNTltYWSQFgmEJArRTQVCdiTgFlDZvaimUlCzNzaON8aa0NDVz+yRQIlCRQpxVEnFtBZBOLamyoLzHLzRlmZlDlD+X/aR+AYQoByt1zK4g8hNIYm+cWY06ZRVlhLgSVfN69pgpLaouUFYbJf9RqBeHmVhDZx+2L7VjfaJS9bZgLs6zWiBUNNri4eoopINRqBVHCrSCyD5vViivnVWJNU7GywrwXNPjlq1uaMa+SvX+msFCrFcQ4t4LIPqg1xGVtJbh0TjGfar0AH1xehXlVRTAb+BJlCgvZCkKFCMDBrSCyE/pgrpxbjC3zSpQV5u3otTF8Yn0NKooMKtRCMExuQUZZjfNC/jC3gshaFlXbsFkIQBk3N3sHdNjrU8L4z6u0wsjzlJkChEy2Kq0g9NwKImuhTn2b2py4Y6ULBl1YWS1sqGztqrkl+OT6Wlg49cMwSUFpJG4FkcW0lFnw4dWVuH6hS5Wyr1zGZtRhVaNdeP/VaCm3FPz7wRQudOWrcRBsJrAAZJjW8iJ8YVML1gjjp9HEldXCQq+NoLZkDNcuGMXGVqeyyjCFiVopIG4FkQPQqeD5lRb8+eY6tJaZZAlYIUHnIVy2PrRXPI9K+2/hDvQqrzBMYcKtIAoMq1GHdc1OfPnKJlTZSQTSE/5lGo0mAYdlBPOrX0N75SM4NfIKdnT9HL7wKBKJwoyGGIYKd9RoBWHjVhC5A1W/3LGyHB+5pEJ4wvnfNpqMv9UwiUXVr2Bp7QtyLRCZwJ7u+7Gt498QiLpVCYMZJtdQqxXEJLeCyC10wuj/5dUN+NIVdXKEZD5jNU5gQ+uDWN38GPRvq4KKxAIiCvgF9vU+JEJYt7LKMIUDt4IoYOjz+sjqCnzz/c1Y2WARz/MvFdJesQvXL/oJ5lVuh+Y9vHxK/7xy+ofY2/MAPKEhZZVhCgNuBVHg0J7AFe3F+Nb7W3HHykoU58kQGZ0mijXNj2LNnEdQ7Tz9Ds//3YSiXuzovBcnhp6HPzymrDJM/sOtIBh5KGpZXRE+f1ktPr62AvXFudsRk8pb7eZRbJ7/cyyu3YpSW58s/ZwOb2gY287ci0MDT8EbHlFWGSa/IaOsTiuIGLeCyGVMeq1sifBHl1Th85fX4ZLGIlk2mUuY9H7MrdyJy9vvR1vFLikEF/NvGPd3YE/3/+Dk8IsyKmCYfIdMtjqtILTTCgkLQJZDIdycMituWVaBL19Rhz8VQrC+2aG8mr3YTBNoF4Z/TfPvsaLhKbSW7xFiEHjPnP+FSIg/MeQ9ib3dv8LhgcdliSjD5DvJ+//cCiKvKC8y4JoFLiEA9SIaqMEn15RicY0NZtlLLnlvQS0c5hG0lO/F8vpnsarxSSytex5VjjNJb2b3uvdjb89vcHrkNVkpxDD5jRoSMD0sADkEhXNlQgiuE0Lw9esa8NmNNbh9aTEWVVvlxnGmoOEttcUGbJjjxA2LQ9iyYKfw+p8Rhr8DBl1I+anZQcJxLmoY9BzHG70P4fToKwjH/HKNYfIRVVpBaKdvBaH7ukD5nskRaKiM0WiQEcCmOUVwWo0w6LVSBGiASjwRF15yVFxCqdF3KiygU4a1xSbZ0G5BtRbXzC/H3WtrsGWeDUXmAUwEOhCNB5U/kTyUCoonovAE+zAe6EKJpQHFljrxXrAPw+QXnWNB7Oz0omM0ufvn2vklaKuwXHCokiYhUL5ncpyOkQC2dUzitY5RHB2YgDtogicUg1c8QtEYEonZhZXUVIo2pM3iYReGv8SqR1OpCRtbirG22YHWMvM7evf3ufdjV/f/4Njgc+K/61FWkyOemPr9FBEYtGYhPstwzbyvobyoTazxzGAmf3jx5AR+8FIvXjgxoazMjns/MhdXzSuRFYXngwUgT6FpQMcH/Xj++DhePu0W4uBBOKaTZWFUZ0zVYfTR01d6kDTQARTadKbnBnHNnAsgKxxGtJRaML/KKrt1bpgz/Sb0gOcItp/9bxwZeFJEAsmlgd4LndaISvt83Lz4e0KQGoUI5MdZCYZ5+ZQQgK19ePbYuLIyO75/WwtuXFImIuXzO0gsAAWG1+vFidEIRJSJyWAMvRMhjPmj0sOfU2pGs3iMeMNY3aSHy2pLyrse8Z3GKx0/xsG+R5QV9aCUEGBBs2sJPrjsRyLM5TbSTH7wovD8v7+1V35Nhv/56Dxsai/mCIB5C/q4qTxMRgDiOfUdkZeAsKfk/VM/IupEaNBNP05uOuKJmBSBp499A2dGX1dW1YS2hy1CuJbj/Qu/KfcEGCbX4QiAyRti8YgUgedPfBdnxl6Xz9WEIgGjzoT5lddi45zPodTWrLzCMLnJsUE/XhLe//GhwEU3hSOf7VwfoU+tLkZLlRNGAwsAk0GoemfYewq/P/RtDHr3CBFQv47fYnBiQdX1WN3wR6goaldWGSb3CETicAei8utsrLNi/1Fl18EkjD9VDZ4PFgAmbZwZ3YuXT/8j+iYPIBJTr0SUiCd0sJtcWFZ3C5bV3CoigTnKKwzDnA8uombSRnPpCmyY82nUFS+HQWdRVtWBdgN84REc7n8a+/selWknhmEuDAsAk1ZayzbhkoaPoda5FHqtSVlNnqmB+gmM+7tweOAxWX7qDvZNvcgwzHvCAsCknbkVV2Fl/V2odiyBVqPu5DMSgnH/WSECT4ho4ElMBgeUVxiGeTcsAExGWFj1Pqyo+zAq7QtFJKD++Mshzyns7XkQRwafRDAyqawyDPN2WACYjLGw8lqsa/w4yovaheeu7qVIkcCYf6qN9MmRrQjHfMorDMOcgwWAyRh6vR7zq67C2qY/RpGpHNR4YuqEr3rQZvALJ76H0yOvynJUhmHeggWAySjU06e9/Apc2fYVGPQORKJm5ZXkSSS0iCX0cjP48SN/g1HfGRYBhnkbfA6AyTjU+zwSDaFrdC8ePPQnCKdg9CNFFyaDHbct/QHqi1fCoFNPaBgmV+EIgMk4ZJyNejPqXIvxvgX/r7KqLiQytBn88ukfon/yoOoH0RgmF2EBYLIGk96G1rLLceOi74jvi5TV2UOng6MxOTPzTcj4P3fiu+gc38GjJZmChwWAyRqoEojaOs+v3IIr278iN4aTQYM4tNp3ziImz7/PfRC7uv5HjphkmEKGBYDJKmSuXm/H4uobsar+w7AZ6+Vm7mzQaBLQamLKs7egjeDO8Z3Y0fkzdI7uQjye3MB6hslVWACYrMSsd2BZ7W1YUnMTnJZaZVU9wlEfjg89h729v8bA5GFllWEKCxYAJmtxmKuwuuFWLKq+Dk5zjbKaHPE4TUeaOmtAoypPjbwqROBBOcKSYQoNLgNlsp4xfyd2d/8PDvY9Dm9oRJ7ynS2RmBF6bUSmh4hYXC9nCSys3owNzZ+Gy9ok11NNNBqFL5JAQDyC0Th8oRj84Zic0DYTTAatEEW9nNxmM2phNwIGwzs3vBlmOlgAmJxg0HMMu7oexKH+xxGODSur6lFkKpNTxS5t/gzsIvJQE5rq5JUGXhh6YeQD4uH1+XFmIoYhn3h4wugc9aPXHYQ/IoLyGdyS5UUGzK+yiShJj7oSI9qLAXuRDWajXgiCDlYhCjQLlmY9M8z5YAFgcoZh70kRCdyP/b0PChHwK6vqYTWWYmHV9biy7c+TKkMlgx+OTnn2EfEY9Uews9ODfT1e+Tg2MIlQVPtm2wutiGjooYFWVkJNf1o5oZxyfuewb502ioYSG1Y22LGkxobVjQ455N8oRMBi0MAsvl5oOhRTeLAAMDnFqP8sdnf9D3Z2/UIYQfWqd+JxPWJxHYqtNlzS+DERCXxWGuOZQjcR3Uo0wvXMSBDbzrjxwvEJEbVMYGgyJM8kkIEmovHkUjVTYpH4AwEg6L9x7jUSiTKbAWua7LhpcQk2t1jhcNjFn6eB/8ofYAoaFgAmpyCjP+Q9jlc6/g1HBp5QVtWCrKIWOk0F1s+5GRua74FRZ5t6aRpODAXwwokJPHNsHEcHfPAEw0JQYojEyOD/oaFOByQUOq14CCHTaQ0oMmmxsNqGW5aW4eoWE8qK7dDpMvN3Y7IDFgAm54jFIxj2ncS2jp/IwS/qo4PFYJeH0SglRCWp78VkMIbnjo8LT38IO84GxfOQeCQQik5FAuSJT91cmXO33/53IK/faojDZjLDZdFiQ2sJbhZisLTWJvcLmMKDBYDJSWLxsBCBU3i148fC+35RlnSqTZGxFRtb7saCqi2wGV1yLRJLoHMsKAz/CJ483I9etx4j3hDcwbjcvE22nbVsiC08d0oZpYIpQZgSg2KrAbVOnRA5Cy5vc2GjEIS6YvXGdDLZDwsAk7PQZumQ9wReOPGP6BzfpXpvHzozUGGfI0Tgs7JHUceIXhj9Ebx+dhJnR0M4O+YTQqSHThN7z3z8bKES1UTinUJC6RxaU3teAv1GpwXS8C+otuOKdhe2zHOh1KZXfoLJZ1gAmJzn7Nh2bDvzU3RP7JUnfNXGYdqCQPh2HB+swt7uSfHfibzDQJNxjs+yXcVMkWcfUiAABAkO/WabUY/WcgvWz7FjU1sJNjZZYTZz2+x8hgWAyQtOjryE3V2/RPf4bgSjHmU1Oci7PzO6BL3j89A1tgITgXJZ4knGX5piYThTbfjTCaWFqEq0yKjBsjo7NrcW4YalVWh0maHjsqG8hAWAyRtIBHacvVd46Ltl18/ZQuWT3nAxOkcW4WDfJox6a8XvM73D+54SgNTl6jPN1B6BFnesKMc188uwutEuD5gx+QULAJNXHOx7BHt6foX+yUOz2hMgr3/cX4WTQ6vwRtcWhKLWlKRdsp8EdJR2ElzaUoxPbajG+uZiuXHMwUD+wALA5BXRaBTHh57B7p770Ovej2g8rLxyYcjI0zziYW8DDvVuxOH+jcorjE4TxdwKMz59aT02zy1FlcMoexAxuQ8LAJOXHBt8RpaIDniOIp74w5kAb4dSPkHh6XeNLsTrZ27GmK9aeYU5B4mA2WDAx9dW40OrK9FSZuY+Q3kACwCTl0xFAs/jhVPfwUSgW3j4732Z04auJ+TC0f4N2NN5rRCCmZ38LUSo3FWn1coo4DOXVuPSFidvDuc4LABM3hKJhtAx/DqeOvF3cAd7ldV30j02H3u7t6BzdDGicap9Z4M2HXqdBouqbfjY6jJ8cGkxbDYWzVyFBYDJa0IRP86MbMfvjnz5D84IHOq9HAf7LseIt05W+TAzx6jTosZpwPsWluCvr23iCqEchZN4TF5j1FvQ6FqNa1u+Jb63Cf9+ysM/2LsJB3qvwJCngY3/LAjH4uiZCOLxwyP47rNd8PnUP4DHpB6OAJi8hy7xQNiLI0OP4pWO/8YrpxYI738txny1SLY1c2GTkNVAtU4T7r6kHF+4sgHUaprJHVgAmIKANoFDkUl85XcP4dmjLoz4SmTNP5M8JALNpQbcsaIa91xazZ1FcwhOATEFAU3oevl0HDvPLsGov4KNv4pQh9SOkSD+fVsfnjwyJttkM7kBCwCT94SjcRwb9ONfX+yRrZyjM528zsyYaFyLQU8EP321H3u6PHLAPZP9sAAweQ15p2eF0f/Fjn68dmYCoSjlqDlPnSp2C+P/y10DODrgl8LLZDcsAExeM+KN4Hf7R3Dvjj7ZtplJPb89MIiH9w+LaCuAeJzf82yGBYDJW4LCAyWP9F+39sqcP+f900RCg3u3D+CZw0OY9Ks/qY1RDxYAJi+h2rZdnR785NVeBCMzawjHqANNR6MtgN8f9eK1ThEFcJ1h1sICwOQllPd/+sgYtp/1suefAWjvhQT4qaNj6BhRd1Qnox4sAEzeEQwG8dzhITy4b0iEAlFllUk3MeH6v3RiAs8fH1dWmGyDBYDJO3Z2B/DsSQ+GPNG8GtmYi/RPhvH44TEZCTDZB98dTF4RCoWw84wbe7t9MvdcmNO8sgdKBe3v8eCFo0MyMmOyCxYAJq94+bRHPCYx5o8oK0ymoZPBe3oC2Co+Gya7YAFg8oZRXwRPHXNjfz9XnmQTFIWdHg3h8aPjfDgsy2ABYPKG189MYG+3B+4Ab/xmG25/FG+Iz2ZXl1dZYbIBFgAmL/CH43jm6AjOjHLJYTZCUUD3eBT37x5QVphsgAWAyQtODgdwZCAAN3eizFrcgQh2dk5gyMMH87IFFgAmL3jp5AQGJuNyyDuTnVAUMOYHHtg7jDiPIckKWACYnIcOHFGt+cAke5bZjkdEaE+IzyoaYwHIBlgAmJxn66kJDE6GEOXSn6wnHI3h5NAkjg765RkBJrOwADA5DZmQh9/ox2QgCI18xmQzlAbyhTX4zRsjCES4JDTTsAAwOc/+vhC8wqjwqd/shz6leCKK1zpoOA8LQKZhAWByFsr9nxoKYNATRZSLf3ICEulITINTw154gtSriaO2TMICwOQs4VgCr5x2IxCOcfInh6AGfd5QAjs7PeIrRwGZhAWAyVmorQCVf0bjfPI31yAR2N3lFQLAoVsmYQFgchaqItnb7VZKCjkGyCVoPvO+Xi/8NDqMyRgsAExOQvl/6vjZ7w4hEqfLmDeAcwnaDD7SLwQgwgKQSVgAmJyEBr4fHwzI+bNM7kGfWygShS8U4/MbGYQFgMlJwtEEuie49j+XIRE4ORSUp4OZzJCzAkDlY+Q5UCUI1RMHI3F5sIQ8CtpYOvegNXrQz1DOmFIHXHmW+wQiMezv9UKn5Q3gXGbQE5b3LpMZNAmB8n1OQd0fu8eD6JsIY8gbgV9cRGO+EE4P++AJTeWDtRoNltTaoNdqUFtsQnOpCXXFZjS6TCi1GeTPMLnJ2dEAPvfAUWw7w+2fc5mblpThL6+ux/wqq7LCpJOcEADq9X5mNIhD/T7s6vTgtY5ujAfMiMfJq9eISIASAeTZx+Upw7f/i4y6KTHQCRHQavTQarUoE8Z/XpUFa5ucuKKtGG0VFvkzTO5wWjgAH73vKI4PesTnr1dWmVzjuoWl+No19VhUbVNWmHSStQJAw7339fjw5HEa8O3BkCcGX3gqrTMZDImfoCPlWmHs35nFeq+csE4bkz9LD8KgS8BmBOxmHZxmPYotBqyf48JNS8vQWm55UzSY7IUiwLt+dkQKAbeAyE10miiW1Dnx3ZtasLrBrqwy6STrBGDEG8H2s5PYemIcB3o96HYHMeaLIhh9l6HXkMc/sxv/3T8rReJtf5TsfZVDj7piKy4TEcH1C0oxt9ICi4H3yLOVY4N+3PCTgxj3BRFLcASQi9B92VZuxfdva8XaZoeyyqSTrBAA+gsMeyKyre+20+M4MuBDx2gAE37y3Kf6h6R60AcdTKEIgfYK5leacEmTExtbirGw2gqHiBKY7OLogB/X/OiAiAgjb0Z2TG6h1cTQUmbD929vwzoWgIyQcQGgKp5DfT78eu8AdnZO4sRQQOb8CTL6mQjvNUIMap1GLKqx4Zr5LmyZXyqem5RXmWzgSL8PV/7gDQQj6b8+GHUgp6vCbsK/3zUXl7U6lVUmnWTMdSLdGfeF8dSRMfz4lW78bHs/9vV44QtN5fbpkancLu0r9LrDeOboGP7rtQH8cteQ+Lt5EA7zxKlsIBYPwxsel72AmNyF7nH6CKmAg8kMGYkAqCa/ZzyIrSfG8IvdozjY65aHQi4mr59OKu1GbG534INLS7CmtYz3BlIIVXL5I+PieogK735CGImYMPQ+YSjC4hEU34fEgyrCxvHFB9ulWDO5S4PLiH+7ox0b5nAEkAnSLgBk/I8N+PHA3iE8uG8EQ56I8gptxk5V62RjVYfNqMPy+iJ8dmM1LmspRpGJBEt5kZkxwcik9PgiMb806uTNR4Rhj8ej4nlIfP5RDEx2CAHwYtR3Wq5NBgfFdeOBX3j9npAQhbgWE4FK3L/rb8Xv4dRcrkIJ3sZSM370wTYWgAyRVgGgk7hUvfFfr/fiFzsGxM2eO31ctMLY64WzWWwBvnfzPFy30MXlom+DLiMy5nFExVca9EGbs3G5RgY/GqPSXaDXvU/+7IjvDHzhEeHtj8Ad6EMgPCmM+zBZBUSiJhj0IWkgzseorxa/2f1V8ed58zBXoTLQlvIi/OttvAmcKdImAPSfoQ3eH2ztxv/uHswp438OMkh6XQwOswUvfXEpapwG6LT5n4Kgzy4hTDulZ+i7RIJ6t9BeDQ1ioedxuT8yFuiANzIsPPY+YdR7EYx6MeYX3rwQhEHPsalfphCNGeVm+7lWDnQ9xGIGYfiD8vl0kAA8uOcvhYiw55jLUKHFP93Sgksa+RxAJkibAPh8Pvz9M724d9doTg+DJp/fbNDKA2P/dkst5tWWQK/P7zLRQCAgjHsnvNEeBKJuDHtPCKMeQf/kYYQiXowHuqSnT5AgELG4DnHx0OumPH96RU0m/JV47ODnMORpVFaYXOTK9hJ8/fpG2bKFST9pEQAy/t8Qxv93ByeE5xZFJMfbv1Lu3yQigRsWVeCrWxqlGOQqIeGlTwR64A72wx8eFV/7EJZrfTJf7wkNSE8+HidvPyYMO810pdPUIcQSERkdUCTwXgae9nIulMZJBnegHE8f+SR6xucpK0wucs0CF/6faxu4FUSGSIsAfOPJM3hg74jwGCPCkJzzEXMbMmx2sx5/vK4KH1tTheZSs/JKdiCrZ2J+hMJ+jA/5ETCfgifcL6KvcfhCo8KwD8InSynD4hETouaVlTcyZ5+g7qokdCGI7+TztxD/8oQw7Jr0RXHRmEH89xLv6PzpCbrwyqk7cGxgrbLC5CIfXl2BL11Rh7YcdqJymZQLwLbTbvzdE6exvzcgPcd8o65Yj3+4sQXXLigVXnE6N4UTGPaelobeGxpSNlTHhIF3K9Uy4wiGg8JwBhAOCs9d5xGRV0AaeKqsicQCsgqHBJmM+rsNOlVjkdFNlQd/MUyVeoq/i/j7nMMfduCN7qux48yNygqTi/z1lnp85JIq1DiNygqTTlIuAJ994CSePEyVHpRCSKeBTA9klO5aWYnPbqzB4hr1wlhKyQSFMSeDTl9DMc+b308GB+TP+MKjMgVDaZxAJCQMul8YeK807qFYELFYHFptfg7bCEWtODG4Gs8e/WNlhclFfnB7K25YVIoSK7dbyQQpEwAa2PLyKTe+/NBJdI4JTzPzjmTKIO/li5vqcOfKcjgt01/IdNApEJ5AOOaTeXZK1QSjk9JzpxRNNKYXXweFxy4Mu/DiwzEy6vQzZODdMnVDP6PXvXWGgjZcpcc+TWomFtfLI/jv/XOaP/i92Uo0bkCfuxUP7vmqssLkIr/99EJsaHbASDXWTNpJiQDQL6TJXPfcf0w2eKP2Dvno/Z+DDO/7Fpbg85fVYWWDURr4qPDAg1HqVR+UOXdKu5CnTnl2f3hM/kwoQn2PJsVrHmHUveL1Yfka9bfXaqLy95Jhp7eOUjGUlpnKg8/eUE8vAAbxe7O/5QWlhdzBcvz3tu8qK0yuYTNq8NTnlojIuUhZYdJNSgSARry92uHGx+87As+5KsA8hgxqpV2P25dTVcMAgrHTCAtv3RMUQpBwY9zfLdMyniC1NghJw07IU88JnTT2MeHR5oLhzSZoH+C+Hd8QX51yY5rJLRbVmPHfH56P9gqeBpYpUiIAw96IzP2/dGJCeLOq//qspaX8DVzS9BiqnaekQYrGjbJc8hx0+Ily8tQGl0ke2gd44dgf4eTQavFe84jPXIMq6L6yuZ43gDOI6ok3Gro+6otgx1m3/L6QmAhUYMRbJ78nL//txp8gD5+Nv3pQOqzBdUSIKg+Gz0XWNxXBbuLcfyZR/d2fDMbw6ukJBMLUA6awmAyUSQHgDpWpRiuEVA+DVosq5wh077mfwWQzNKN7cYUeVgOn7jKJ6pbKIwRgZ6dXbmQWGtSZ0hMsFSJYqqwwakOb2DqNC7XFS9BWvg7XL1gLo57TP7kEGf85pSaUOO3Q6XKvJ1g+ofoewP5eH277z8MY89Oho8ITgSpHh9wHaK3Yo6wwM0Wj0cKsd6DYUgu7uRI2owt2UzWKYm2wmotQXFwi1qugEX7LVBM+igR0+NJDfXjs0Jh0Ppjsx6TX4tblZfjW+5vFZ831/5lEVQGgG/Dpo6P4kweOynMAhbgxZ9b7MK9qO66c9wtlhTmHxVAMm6kUTnM1rMK4m/VOWBN1sBtq4SyxoshULkRAB73WKAy7QRp3ndYAXcIMrVZ8L7xFen4OunSpC+kD+ybwD890oX+Sq6hyAbtZh3s/Mg+XtjikGDCZQ1UB6BwL4j9f68cPX+6VzwuxNI/q65tLD+CGxT8qqLJOm7FU3MxF0rCToaevdl0dDLFyFLss8jkZb73WBIPOLL9q6XnCIr63wGDUy7WLJR6Po288gFv+6xhODM+slTSTOfRaDZrLzHjmc0uk989DlTKLqgJwdMCPf3y+Gw/tG1FWCpP6kqO4duG/C09nTFnJbciwU2rGYhQevDD0ZKiLLXVyI7ZIVwuL2QqToUisU9mrMObCwNNXo8YJXdwKs9Ugn6eKWCyGLz18Bo8dGsW4nyuCshmH8P5vW16O7900R+4FMJlFVQE40OfDN5/qwtNH88PwzRY6B3DVvJ+j3N6lrGQvZMzNBgeMOkrBVNChYzgstdCGnLAX2WEyCUOus8GoF0ZeEQLy5G3GMpmiMWuF5280C08uszfz7w+O4u+f7sLxQb+ywmQj9cVG/OT2Jqxvo3SfsshkDFUFYFenB3/16Bns7vIoK4VJhb0TG9seQKPrsLKSGchDp41UwmYqk5untLlK6xaDUxrzNwVAGHi7EADCaa6FhgTA7pDGnQx9tjMwGcbnfn0KL5+aAI0eZbIPk16DNY02/PruuTCbs6t9eqGiqgBsPeXGnzxwAn1u6iFfuJs7pbZerG1+BHOrdigrqYFy7WTMTfopD92gtUCvM0uPndZ0WqMw5lXiJzUyZUMbrC5rk/TgydhTOief+O5z3fjFzkH0jBdA/5EcpE54/5/eUIEvbOIpbtmCqgLw7LExfOy+owhFYojl4MxftSixDmJlw5NYUveisnJxkMdNhpxy6mTE9RrxUPLqZPApXUMpF5e1UXrwDmHkKSVzbgOWqmnOefOFxLFBP77+RCeeOzZeUC1IcgGjToP1c+z4l1vb0JRlw5MKGVUF4Kkjo/jwvYenmpzJbHJh4jCPYmndC1jd9Jiy8hZU664TRpwqYMiY6zQ0WH6q5PGcwScDT6kaMujkpVsNJcKgV8JpqZV5eDL8zHvzHREF3Lt9AP1uLgnNJhpLjLh7bTm+fGWTssJkA6oKwJNHxvChn1FvFpodW7gHPOxCAJbVbcWGlmelwdckyODT1C0djHqL3GwlD73IVCa+VgnBqJaGntI0JZZ6+WeY2XGoz4fvPd8tN4U5CMgOaFDelvkufOcDc9DguvhSXyZ1qC4Ad/3sqPKscLGa3Lik8RS+eEVMeu+O4Cq4Ks1w2WtTWg7JTPF/X+jBD7f2cklolkBjU/94bQX+bHOzssJkC6q6mmaDFhV2SmkU9o1X66jEbctuwYbme7Ci7k60tc5DubNZ1sczqecDi0vx/kXcjylbWNVYjPcvoWIEJttQVQAMWg1sRt3UFKsCxmzQodJuk7l8eepVR1O46D3hwud00Ogy4/K2YiysVm9GMzM7FlZbsbm9GE3iM2GyD1UFwGbSob7EJIxdYbfnpROOZj0b+0xh0GmwcY4dty4pkVEpkxnIDlzR7sC1C1zyM2GyD3UjAPEhU6OneIF7uhZhdKqcvNmVScrtRlzaWozLWp3KCpNuLhPv/+Z2F8qLuF13tqJuBGDUoa7YVPADUSxGLWpYADIKnZNor7ThlqWlqC/mlsPpptqhxw2LSrGszq6sMNmIqpa6xKrH4hpbwaaANEjALuw+Xfw2IQJMZqFukxtbnLhzRRmM3HY4bVAq+MbFpTL6IpvAZC+q3hV28cG3lVvgtOiEB1aAIqCBHHC9vI43H7MFisQ+tKoK18wvKcxrMgNcLgz/nSurMKfMqqww2YqqAkCbn2VFBqysd4pfXICncMQ/ub7EijVNJcoCk2koFVTnsuKrV9djcTXNHuDNyFTSXmHBp9ZXY16Vld/rHED1uLjMZsDNS8tkO4hCw6ADaov1aBVREJM9UHECfSZ/fc0cWSLKhkl9qLVzqbj3/+zKOqxsKJKFEEz2o/qnVGTSiQhAXADGwqsFKreb0eSy8cWfhdDoQSpH/PSl1UKkTTJaZdSBjL/TosdHLqnA+xaWwmHmvH+uoLqlohurtMiI9c1lBXeTUe7/8jYuO8xm7tlQjY+uqUS1w6isMMlCBv/mJWX4u+saZRk4kzukxFWlsW9fuoI6VxaOJ0wHjujk6ZLaImWFyVb+ZGMNPry6UpYsM8nhtGhx3fwi/P37m6ClUIDJKVJioY06LZYKQ7i6wVQwJ2KpyuTquSWcX84BKEX36Q1V+OgllXJPgLl4qKLKaYE86PV372uVZ4CY3CMlAkCOANUCf+3aOaiwa2V9fD5TatNjfbMDC6q57C1XoA3LO1eU4p71lSJq47Ldi6XWacZHVtfgr7Y0oNrBkVSukrIcDTnCy+ocuLSlRG4Q5TPXLXCJf6cTVvaCcoq6EjNuXlaOL1xeK6M3ZmYsFYJ5z6U1+PjaKrRVcMVbLpPSJD2V3318bQ2ayyx5uyFc69TjinYn5oh/I5NbaLVaVDtN2Cw+v0+uq8BNS0oLvpHhdKxpsuNjl1Tg5iUuLnfOA1K+S7u60Y7bl5ej0WXMu1QQnXi+fVkpVtRx3XMuQxEqRXCfv6xGGLcy1AlRZ96JSe/H5rlmfGp9Jd63qJR7XeUJuq8LlO9TBg2B9oYi6B4PYTKYHx4WbYJ9YEm5LCsk759OnDK5CX12Rr1ORANGLKuzQSci10hMg2FvCDEOCFBiHUBrxR7hyMWECDSgyuHi6z1PSIsATHUJNUvj3ylEwB/O7btKq0lgdYMNX7umCe0VNuh17P3nA2TUiswGrGp0iojVhDFfCOP+GELRRCE2NgFN9qu0d2JRzctY3vAsbKbT4nmzEIQGcQ9wlJQPpEUACJfNIPuCTwSiODMaRDiWm7cU2frmUgP+6Za54sawcZfJPIT2qyhqXddcjDEhAMEIPaKIyCnz+e/5kuG3m8ZQUdSFjW2/Rkv5G+I6DwrHbRwWYwlKrc3CqXMpP83kMmkTAKLKYYTDohehdQQ9EyFE5Q2VO5BhqHWa8H+uasSVc0sK6qBbIUInXOl8x/wqG9wBD0a9AURiWsQS+SkClNY06EIot3eLKOgprG95GMXWoXdsjE8G+8T7Uo1Kx3yxzlVvuY4mIVC+Txtv9Hjxg629eOTAKGI5IgKU8mwoMeMvrqqTp0iZwiISieB3Bw7iJ9v6xfVrRwJaJPJICMjrtxg8aKvchXVzfgez3qe88oe0lm/C+qZPosm1VllhcpW0RgDnqCgyYHldEUosWrx2ZizrJ4iRZ7S8zoJ/+EALrp3vkpEAU1jodDr0ev5XeP//ivqSI7Lb7bi/Oi+m3xWZx7Cg6nVsmPOwiHZeh0EfumCiyxsehkVfinrnKvm+MLlLRiIAgtI/I94IXj41gW8+3SUrhLIxGKAc//vmO/DVq2rQWO7kIeMFyrD3JF44+RMc7n9C3DVAKGKDJ1iKk8MrcWJwNSaDZTknBlXODrRX7ERdyTE4zKOy1JMigenQiP/VOJdgTePHsaj6BmWVyUUyJgAEGXxvKIZjgz784/O9ePX0RFZVCFE9+O0ryvGR1VUi3DWxt1PAvH72v7Cr65fC6+8WEeHULRNP6OALOeELO9EzNg9dEwswONmMYKQoK9NDWk0MdmHoK+ydaKvYgxJbv9zsNRt88rWLwaCzYH7ltbh67l/CZixTVplcI6MCcA4Sgn09Xmw/M4nf7h/B4QFfRoWAevvQPNOr5xWLsJhKAvnEYyEzGRzEcye+jaODTyEWjyir74SEwBMqFdetA6PeGhHdNmDQ04gJf5VMF2UK8uirHTqsbizH/KowvOEHhYi9Cqd1UG74JnM4s8w2R0QBd2Nl/YeUFSbXyAoBOMeoL4I3ur3Y1+vFc8cmsF98DUTSJwTkBW1qKxWGv0QeeW8tt8rW1kxhc7D/Ubx+5j8w4DmqrFyYQNgu00PuYJn46hKi4MSYEAJfqESKQyRmFmY3NRECGfVGlx3NpTa0lND5Gx2qSqxoLnOgxhHFsOdlPHLkKyJCSe6+ouhHr7WgpWwVtsz9mnCampVXmFwiqwTgHGO+KLafncS2Djf2CkE4MuCHOzB9bnI20Aav1RDD4tpSrG+2YWOLCysb7Gz4GUksFsPjR/8Gx4T3H4x6lNWZQ4YyECkSxr8eRcbVcFluEwKhx7AvLq7pGCaCUUyKr3R9+yNTaZhoLCEE4w+vd7NBI65V7ZsHD2k/isqSaY0GsdQXG2AzxVFfUiRnUzcJ419pN8BkmmrbQLe6PzSBhw9+EV0Tu0U0E5brs0FGNQkNHJZSLK+9HRub/xR6PR8OyzWyUgDOMeQJY3eXVzw86HWH0DkawsBkGH1uj/Ci9LP2osjTpzRPa7kdteKmqXLEsa65CluE508N7BjmHL3jh/Dksb9Fj/uQvNrIYZgNRaYKbGr9AlbU3YloNIq+yaiIeKMY8UekwzMmol9PaEoAIkIABsW1Hxficw5qXGczaeXIVYOyF0Un7OnAml2sFVt0aCszwmw0iL/j+a9hSmGdGn4VTx//fzEZ7BeG/OJy/+9Go9Gi1DoHNy74Hupci2hl6gUmJ8hqAXg7nmAMOzoncbjfj4O9gxj20qniuPSa6F/gD8fkhjLtJ9ANFBU3j8005ZHYzXoYhWGnhm10EK3YEkd7uQmXt1Ev+CJ5Qplh3k08HsdzJ7+Ng32PCmM5IfPlWu3FG0w6MFVRNA93LP8pnJYqZXV6wuG3PHTyrkkE1IB+71OH/wHHRh9FMOZWVmePSW/HgqrrsGXuX8GoLxLvE4tArpAzAvBuusZDODkUQL+ICCKxuIgKwugaCyIqHDRvKCq8qZAIiacGfbSUW2THxwoRDreJ75tcZulJMcyFcPuG8OsD9whvnOr+Z+8pWwxO4XBchevmfgNGY3bMIu7p6cETZ7+AIf/hpKMAwiQM/61Lvy8Ph+m1PG85V8hZAWCYVLO35wFsPfV94UwMKiuzo7xoLja3f0WIwBXKSnbw/InvYX/fw8JhGlZWZo9Oo0dj6RrcuPDbsJsqZWqIyX74U2KY94CqZPb3PoxAZFxZmR3xhAEWfUPWGX9iY9MXUFm0QJWUTSwRRcfINpwceQmhWWyWM5mBBYBh3gVtlHZP7MWovwPRJCpliPKiOiyoXq88yzJ0UbRWbFSphFODUMSCHWfvUyWiYNIDCwDDvItoPIR9vb+BL5QQkUByt0iZtQ0Lyt+nPMsu6DTv0ppbUWZbKkQv2RLOhGwZPeY/g8ODT2IyOKCsM9kMCwDDvA2q/HF7xnF86HnxzIvZln0SNmMpyu0tsJmzc+C8Rtz+Zr0dS2vfh+bSlcrq7KEWGfFEBHt7foWhyVPyvWSyGxYAhnkboZgHp8efRyAyIQxacocPy2wtqC9eKX5PdpdFNrpWCAFYo9qQF09wEMeGnpYpNCa7YQFgGAUqiPMEhnFg4DfKSnK4bE2ya2a2Y9Y70FK6EXXFa1VIBU1xavRFdE/sntXpaSZ9sAAwjEIo6kX/5GEMeo4rK7OHNlZrhfHPldGJlfZ5QgQ2oNhSo6wkx4R/BCeGXsGQCu8lkzpYABhGwRseEp7rC8qz5KhzrBKP1cqz7Ic2hBtKVqCtTJ2KJTpc1D2xB2fGXuOqoCyGBYBhBFTuOebrxNmxHcrK7DEbHCi3taPYXK+s5Aa0Z9FadiVKrI3KyuyhNtSByAhOj7wiG8+pcdqYUR8WAIYR0GlfMlS+8IiyMnso9VNdPBcGQ271mKJeQ9XO+VhSfTP02qkOoslCKbXTIy+LKGBIWWGyCRYApqBJ0P8ScYx6O3Bi6DlldfZQ47eW0stEBDBPtpLONaiNQ3PJpagoaldWkoNaTvdM7MOJ4RdEFJCalu7M7GEBYAoaMlDBiA/jvj6M+JIvW3SYq+GyNqLI7MrJ/vgUBVQ6W7Gu6ZNSzNSA5imfGHoB7mCfssJkCywATEFDqY5+z34cG35CWUmO1rLLYTfW5qT3fw6D1oJy63w0l65Puk9QNGaQj2HfSRzse0RZZbIFFgCm4Bnxnpa9f9Sg3nEJSm1NqvXuzwRarQ6uojpsav4Kku3qqdNF5YMOh50c2ara+8yoAwsAU9DQnN/eyQOy/0+yNJSsQqm9AQa9KetP/06HXmcU/5ZGrKi7S5aIzhYaokMPqgIa853F/t6HlFeYbIAFgClo+t0H5UMNFlReB6elJueN/zlMegvWNN4tjEQJEonk/03UJrpzfJfcD6DNdybzsAAwBQttSvZNHsREIPnNSTL8tcXL5PSvfEGj0cl01vL6m2E1Jt/QjqIAt3ivd3T+HH6/V7beYDILCwBTsPRPHpJtH6LxoLIye9rKr5AVQFpN7lX+TMeq+ltQ7ZgPg86srMwOiiJC0Sh63W/gyOATiMSSf9+Z5GABYAqScMyHnom9GPefVVaSo73satlULR+hstb5ldfKMwLJo5H7LXv778NEsIfPBmQYFgCmIBnynECf+yB84TFlZXZQrXx5UZts/aDW6dlsZF7lFhEFLIJRZ1VWLh6aF6DTRmQqaGDyBI4PPotAZFJ5lckELABMwUGDSk4Ov4gRX1fSm5s6rQ3rGj8Fm8mRN5u/7wUNt5lbcbXsF6TGwPd4Qovd3f8rD4klO3aTmT0sAEzB4Q+50Tm2W7YsjieSOe2qg15Tivnl1wshyF/v/xxzy65BQ8kamPRFysrsoWZxk8FBHB54Au5gr1jhDeFMwALAFBwnx56XrZ/1uog0RLPFqDdjTtl8mEy5X/c/E6i53dzKzagvXpH0CWEiEjPhQN8jGJg8gogK5zCYi4cFgCk4DvQ9rHidyWExFGNxzU3iu/w3/ueoLlqCpuINcFiqlZXZQ0PkIzGvPBw2MHlYWWXSCQsAU1BQv//J4ABi8YiyMjuoJLLc1opmlzoDVHIFg96ItorL5QhJtaDPhDqGBnlDOO2wADAFxeGBxxAITyjPZo/VUIrm0nVJ18bnGpTqKrHWY07pBlQ7FiqryUFloadGtqJv8oCywqQLFgCmIKCe/+T5nx3bLs8AJIvdVIG20quVZ4WFTmtAffFqtJdtUVaSp2f8KI4OvIQR32llhUkHLABMQUBe5qGB32PcP45YPK6szg6r0YUa5xLhCdcpK4VHkakMTaWXoNG1RllJjlDMjc7x7eiZeENZYdIBCwCT91DjsUDUjf29DwvjH0x6z5ZOxraVXw6dTp2BKbkIpYLoTMD88uuS6hZ6Dq0mLsS5B6dGtmPAc0RZZVINCwCT90RiAfS7D8lDRxpNUNj/2dec02nfEksjquyLlZXChaqg6ktWobFkjRDW5Hsg0efUNbYLxwaeQySS3CY9MzNYAJi8JxBx42D/o8qz5HBaalHtWAyTzq6sFC409MZlq8Oy2tuFGJQqq7NHq43BG+7F2dEdGHAfVVaZVMICwOQ1sUQE7kAvTgy9rKwkR5V9PlrKLs3Jeb+pgE4F15csx/yqDaocDiNGAidxcPghhKLJb9YzF4YFgMlr/OExdIxuRyCcXNdJ6hmk11pQbG5AiblRWWUIm9GF9U2fgsVYokqfIPrMOsd2omt8t7LCpAoWACZvoc3fiUAPjg4+DoM+ud7zsbgBNY5VaCxdxd7/u6AZCMWWOqysvzOpbqFvZyLQjZ1dPxfvOzeKSyUsAEze4g+PyhOmI95Tysrs0evCaHatRqNznbLCvB291oy1tfegyFQhW2QnCw2LGfQcxb6+h+UZDiY1sAAwectEoBdd4ztlJJAsVPrpstXCYDAqK8zbobJQs9mKy1u/ALu5SllNDn94HLs674N7ckK28GbUhwWAyUvC4TAGxk/JPjNqQOWOFfa5yjPmvSARaHSsR7V9IYx6m7I6e2haGKXw9g/9EpG4X1ll1IQFgMlLJsO9GPQdQijqVVZmD538rbUvh9NUuCd/Z4rNXIyltbfIPQE1iMQD2Nf3G/RNHpJpIUZdWACYvKTfcwCnx7Yqz5KDRiFW2FthMiTv1eY7dDagoWQ1mlxr5RSxZInFNXAH+3Co/1EEIuPKKqMWLABM3uENj2Bg8ijG/V3KSnI0l2yAy9YkUxzM9FgMTiysuEHOSU6eqf2b44OvoWfioCoRHfMWLABM3kHD3s+1Fqb6/WTaFDjM1TICsBpcygozE6hZXnPpevn+JQP1CCI8wUHs631Qlocy6sECwOQV0XgQvRP75JjBKTRJDX5vKdsIp7VSpjaYmUON8torrkSTa43sn5QsOl0Ep0ZeQOf4TgQiyc9zYKbgq5rJK0Z8HRj2nXwzVaARHiTN/p0NNOyltXQTiowVygpzMVTa56K5+DKUmOYoK8lDQ+T7Jg5zWahKsAAweQMZhVPDW9E/eUhZSY7yona4LHPkISdmdtTbLkWz4yrxHqpzfqJ7fA86R/bAGxhTVphkYAFg8gavz42esUNwB/qUleRYXH0jHNZyTv8kgcvlwpyaRUJM25SV5Dky8gjOTGzlE8IqwFc2kzd0TD6P0WAX4gl1LusFVdfLihYmOeaUXYqV9R9SniXPmL8L3RN7Mc4bwknDAsDkDR2jr2IyePbNypHZoteZsaL+DtUamxU6lP6ptM9DW/kVysrsiSV0clP/9MjLODH8grLKzBYWACYv6BjdhoHJHoSjyU+SMmhNWFJzM+IxqiBKvo8Qo0FF0Vwsq70t6fGRJO60se8JDaNj5FXVWn0UKiwATF5wbPBpeEOUEohNLcwSKlkkb7XKvgBGg5kPf6kEVVTReQqaHpYMNM6TUnw02L/H/QYODzwGX3hUeZW5WFgAmJxnzN+JXvcBhGNuYbCT89jNBgfmVlwNTdwAnbZwh76nAmoNMbdsC0qtTeLZ7IVVfsbiEYxMis99Pzo5Cpg1GhHicozLZJxQNI7+yTDOjgbl6f+TIwHh5SUw4Q8jGKVLdMpgmA06FFt00IqnVgNQ5bSg3/0qzo7/C2KJ7qTy/5RbLrG24Y9W/QR2Yw0PflEZMjW+0Bj29f0aL576Z1WqeMx6O1rLN+Gq9r9I+tRxIcICwGQMTzCG7okQTg17heH3oXs8jjOjfhninxr2SQEYD4QQiFAufipYtRqFkVYEoMikQ4XDDG/oBAy6fbAYh4URGBFGfAB285hYC8k/M1NM+mK0CQ/1lqXfUlYYtYnHoxj1deHRw1/BgOeo+Ixnv2dD10RCOAYuazXWN38aq1SsNCoUWACYtEKHtbrGQzg9Qo8ADvX5sLt7HKeGPIjGhUsvc7xk4GNvJglIEOhGJygHLL18jQZa6BARInEOMvguWx+qHB0oFV8d5lEUWwfhtAxBp51+JnClfT6ubv9rzCnjqV+pgsxNKOzH8eFn8MyJvxfi7lZeuXjoOqGozaQ3oMa5Ah9Y9A0h/vXilXNXDjMdLABM2hjyRHBycBzPHPPiqWMTwtsPIBKleV0aadipuoNuarWgKKC5dD+ay/ej1Nonno+eVwho87et7ArctOifYTCQEDGphAb23L/vbpnDj8YvLlJ7NxQJGHVlWNv8QVze8qfCQeC9m5nCAsCkFHLQ/eEYBibDeOLIGP5j20n0Tkylc2gzj25etQ5unQ+T3o/Wij1YUL1NeIj9sBo9MsJ4OyXWBqyq/zDWNX1CWWFSDdXxP3v82xjznxXXQXL7ARqNFnZTJe6+5H65F8AiMDNYAJiUERXWf8QbwWsdbnzz6U6cHQvLvH4mWVr3PBbXvoRi6xAM2rCMOij+oNbFV7T9OWqdS5SfZNLBIwf/AseHnkMwOqmszB6d1oB5FVfj2vlfh83I7btnApeBMinj2KAff/qbk7jn/sPoHPNm3PgT+3s241e7/hZvdF4Db6hYrpkNTlQ5FrLxzwCXt34BlY55yrPkoA1l6hY6PjGMWCy58yCFAgsAozrhaBxPHx3Dnz10Cq+eHkMkblA2eLMD+rvs7Lwer3fcjKHJRpQXtaLWsQyRSPKniJmLw6ItQ71zFRzmKmUlebZ2fRvuUI/yjLkQLACMqlCu/+c7B/GdZztxqM+DYCQ7KzIiMTNODq3CK6fuwIj7dtQUreC6/wxgNJqwovYu1NiXKiuzg6qBItGptt1dE7vRNb47qQqjQkH3dYHyPcMkRb9bGP8dffj59gFZ5hlSKnyylZiIBPxhJ3rdxfCGzWguswpPlEUgnVCrDaPeJqLEANzBXvjCI8orFwd17KCiAnrEE1F4Qm4R2bWIz7OCN4QvAEcAjCrQKd57t/fhV3uGcHYsKDzsWFYb/3NEYiYhVho8sHcU94nIJRCOcSoozdC8haaSDahzrpSdWGfL2yu7Bj2HRBSwA97QsLLCvBcsAEzSUBuHxw6O4ncHRtA5FpbheC4Y/3PEEwl5OO3h/SO4b9cQhAYwacZpqUJL2aWocSxSVpIjJiKKY0PPoMe9T4h8QFll3g0LAJMUoVAIjx8axW/eGETnuDD+wvDLhxCBXILq0DtHA/iv1wfw6OFxZZVJFxQF1JcsFyJwGayGqeqsZBnyHJdzA6hZIPPesAAwSbG3axI/ebUPB/t8CEWSb+6VSaLxODpGAvjBS73YetItIgE+IpNObMYyNLnWoK54ddInws+1iegc3yk3hENRr/IK83bOexBs1BcRjyh0s5AIo/hD9SUm5RmTj1DahFo7fO33Z/D00XF4Q/mRN6H4RS+u38U1Vnz/tjbMrbTCoMutaCaXCcd8ONz/LJ49/n8RjPYrqxdPNGYUUUUU1DeqvWIz1jd9Cg0lq5RXmXOcVwAeOTgi87omwzkFmNlNQPdKRZEOX7u2WVlh8hFfOIb/fK0f3322R36fD5DxJ4NBYwepZ9An1tXjy1fUotrJzkw6GfF1YGfnvdjd/b/KSnKY9cVYUX8XLpvzGVlxxLzFeQXgH5/rxLee6aRbQvwvJm6K6cvjtFTSpYujuSyG1//8cmWVyTfI++8cC+Hyf9kHj/D83/sKyn2o3fSv727D6qZiGPRcSphOKG1z/95PqpK6oXLfuuKVuKzl45grooHZQF1so3HqVUvX/1RXU7J3VH5Krcn14v9ycXrceRM8cfHSuTzaTIw/QYYhDh2cFu7Dkc8MeyLC+++DPxzMW+NPUFrrf/eOo2sirKww6aLM1iJ7M6mBThvBkHcvjg89K55Nf8HSNU0PMvT0oBYmbvckXj/jxsun3Pj13iHcu31QZkno+f5uNzxe35s/f+7P58K9cd4I4LvPdeNbT3cpz2YGHcIwiAigvcKBV7+8TFll8glq8EYbv7f85wFhIPOvhkCmgbQi4o1POT1mvRb/fWcjrl5Qzm2i00gsHsOg+wQeOvg5jAdo1nPy1tRlbZRDY9aep+PrsDeC08MBYejHsfPspBCNuIx0CXJuSQjob3HOyJPnfy4C0FE0IG4Hoy6G+VVOWA1xrJ/jwlUtVjSW2WA0GuXvyTZUFoC4uGGAxbXFeOZzi5VVJp84NRLAv7zYi1/uHBA3Q+6FvDOBRODt/7ar5xbjL66ux+pGh7LCpINQ1IeO0Vfw0P4vCqOb/D6TTqNHg+sSfGDRd9/sPXR80I83erzYcdaDw/1k9KPwi8gvEImAitqCkYtzcsgJNut1whGOwmEywWzQorbYjEuaHLik0Y55ldasKpBRXQCMuoT4Rzqx9UvJ9fZgso9oNIoXj43iMw92yiqxQsFp1uDvrm/C7SsqYTfxXkC6iCficPsG8Pixv0LX+C4RfSaXiqOUttVQibkVN8Dt/xieOTYue1e5AyGM+mNyRGk0NuXly3Q+efqzdHLIiaA9AbKuRhFFllj18lFRZMDCaivWNdlxpYgObLbMbkqrGsNPnQAl9ctPz7DQIe9oX1+goIw/MRmK4+hAAANu3gtIJ1qNFkXmUmxo/BNhRO3K6uwg4z8ZKMWezoX4/ktV+PErvXj++DD2dHtEVBvCmC+KiAgypgw+GW5pwqf+8CygPytTReJ7OilPQnN0wI9tZybx6zdG8E8iiv7qY92ya+64Pyp+ln4y/agqAFNvVwKxDP1jmNTSKwzg7u7CO1BDpuCNHjIU3FIg3Rj0JjS4VmFu+ZUwG2aXgpvwV+Bo/3rsPPt+YfAvx97uZhwbDAjDTE4rPaaMfjqgCIOGJO3r9eGhAxP40ct9+ObTx/Hk4RGMCSFINynaxUvPm8mkD9oA65kI4mCfR1kpLE4O+dA1FkA4GpMlgUz60Ol0WFrzQbgszXLq10yZDJaJz2019nZdIx/HBtYJ41svDP6U2Uv1KNILQcJDo1Jf65jEL3YMSiH40ct0An1CRgTpQt0UkPx/jdwVZ/KLiUAUHSNBDHjS76VkGjIUnlAcJ4cDQgRD4ublCDfd1DgWY07ZpbAaZlZiTob+cN+l2H7mRuG0bMKweJ5NQ4nOQVV14ZgJr53x4gdb+/CvL/Xi9wdH0THsl3tuqSYFKSA6MME3SL5xdjSAQ/3+jHpNmYT+3W/0+HGgzy89Uia90LCehdXXo8ox/4Ito6l8t9/dIjz+LXL857Cn4c2S3myHJum9cGIC39/ai/t29AsB88jIO5WoHAGQBOhg0hemkchnzggBoAuycEmgeyyILqUunEk/lUVz0V52FUrM9crKW1AePxixiQhtLp4/9lEcHVgPfzg3y3ZPiUjzZztH8KNtQ8Lp8qS0z5a6EYCG1Coqh2ow+UVQRKPeAi6CoR5BnlAEk+KN4BRQ5phfdiOq7cvesRdA0Zkv7MSJoUvw2ze+giFPU854/eeDWqw8emAQf/LAfjx3bFzuF6QCdSMAuZtugI1rpfMOuiDdgQh0msLbAyCojDAUjSEQCqYlN8u8N1arFW2Vl6LKsUBZEddmsBQ7ztyI547enTcpSkr9BKM6HO7X4iu/7cAv5aAi9R2PFEQAkbxpDcy8RTQWExdkdMZ9ofIREgGfuCk9PDEyo8yruBqNxavl97TZ+3rHTTjcd5l8no+M+iP45tNd+LvHz8piDDVJQQSgh9XIEUA+QfXJoz7qj5Mf3lUy0IEhGn7PZA6d1oh5ldeg3PYJHOjZhFPDK7OywkctKOPoDkbx6719+NXuIVUPYqobAchCUOEp5vhkKOad0J6OP0yfaWHX99I+QDQeRYCv74zjDTXi1NBmmfcPRy3Kav5CIjDmS+Cn27rx+4Mj8jCZGqgbAcj/18LIrSDyCjL+wcjUdKVChiLcaEw8uMw5o3SNBfHb/ZN4/nhCXJdFymr+Q1WWZ8fC+I/XevHK6QlMBpNPtascARDcCiLfoN5ONCYxmd4o+QD9+6k/DQ3/YDIDpSN/u38UD+8bRdd4uOCuSTrFfGQgIEXgheNjcCe5J5CipC7fIPmE06KHw6xX9ngKG7NBAxvvcWWEWCyGp4+M4bcHhuTwfqr4KcRrkkTg9TMe3L9nSLayTiYiTUEKiFtB5Bs0GrHIpBWfLEd2NqMGxWa+wDPBiSE/Hto3LHv4F/ouzDkReOboGHrGZ384MQUpIG4FkW9QCsispzQQBdyF/dnajVq4LCkKnJnzQjblof2jONzvRyBCBpBFmPYAaCTlttPjMjqaDSpHAPSh6GDS8Q2Sbxj1elgMetDQn0KFIluj0QCTKXsmOhUKJ4TX/8ThYQxMciuOt3NkwIvnjw3j7PDs2rSrGwGcawVBkxWYvIL2AUptRnkYqlCh8y2c/08vZFGo7JYmFHaNxxQnkzmHVqPDa50h/GzXGMKxi3fO1I0AZFjGrSDyEZpjOq/KDJ2mcMV9TplFPM7fiZJRn0gsIXvhvNYxCh9NcGHeAaXGaNrYri6P3BC+WFIQAXAriHykUQjA/MoixAo4AmgrN4tH/h86yiboUOk/v9iN8UByIxrzGTqfc3LIg3u3D1y07U1BBMCtIPKRSocRrcL4WQyFub+jFZFPe7kBbWWc/08XZMyePDKKE8K4cWHJ+aFy2IkAcLDPj73dF9eyXd0IQGbsuBVEPkKHn2qLTVhYbVNWCotGlxVNpTZYTYXbDC/d+MJxvHJqEoGIsCxs/6dl1BvGs8eGlWczQ90IQP6/FkY9h2r5SKPLhA1znMqzwmJZnV1EQFZoNHxtpwOaueD2BfHSyRHE4/yeTwcJ5Lg/hj1dfmVlZqgcARCJlI8xYzJDld2IpbVmGHSFVYpn1GuxvNaK5lJO/6QLmj+xv8+PPndEcSyZC0HvUSgaR687KjeDZ2qCU5LQ1fBmTV5iNmjRVmEpuChgaa0NS8Sj2MLpn3Qx5IngqaMTyjNmJpDNp3kBv90/MmMnPAUpIGH+2f7nLQ0lVty1sqFg6uGpoOGGhSWYV2mDVpsSf4l5F5T+GfGE8OppNz2bWmRmBI2OfOnEBIKhkHwfpyMFKSBuBZHP0IGwtc12bGgpjChgeV0RNs5xoMKevwNHsg0yYt3jAQx5wwV98HA2RGMJdI2H0Dnim5EdVjkCIAnQwcitIPKaSrsRX7i8Bg6zNq+jPSp5/fCqcsypYO8/nQx4ItjT4xfGiasJLxYy+cFoHNu6QwhF0x0ByINgVAbKB8HyGdoLWFRjxZXtRXk7/IdKmpfXF2H9HCfn/tPMhD+KUyNBxBIsurOB8v/bz3rlpvB0qBsBKAfBuBVE/lNk1OPPN89BqU1cRFL48weKaizGOP5qSwOqHEZllUkX44EoTg8HoNOyIzkb4kIAjg/4EI5lJALgVhCFgF54/guqrPjOB9pR7cyv8ki7cGB+cNt8rBQRAEU7THrxheKy/DMW58jrYpENMzQRnBqeRHQGzeFSEgFwK4jCQKfVYGOzDR9ZXYEaZ354yiVWPT62tgrXLnTBYuDrON2Ew2F4fX6EZ5C+YP4Q2ocl4YzEdMIRj09bDqpuBCC3ILgVRCHhsJpw99pqXNluh8ua295yeZEBty4rw2curZZlrlzOnH7CCS0CcZ20JMzsIBGgB81Pnq4SSN0IQPxH6VdyK4jCgapjqh1GfO6yOmye64LDnJtec7FFi01tdtyzoQa1eZbSyiWCkQS8YXYg1cATTLMATEUACcRmsPnA5Bfzq4rwyXWVuGGhE2W23BIBSl/dsqxcGn866cxkjlgiIWcAMMlDe7HTbQOkJGbnhlmFyaoGOz6xvhq3Ly9Hoys3BqfMrbDirlUV+PjaaqxqLMxGd9lCPB5HKByTdexM8pAZns4Sq5wCIrgVRKGi0+mwsqEYd6+rxl0ry2WVULZiNmiwpsmOj4uo5Y8uqcTimsJsc51tGHSagp05oTZFJr0s1LgQKqeACG4FUeiQV02VNBQNLK+ziYswKpyC7PHqKooMuLLNgS9tqsGHVlWiKUeilXyH9pMcVgNKxINJHrNei2nsv9oRAP3XuBUEA7kxfMeKcvzNtfVY12QURtYIvTZzjgFFpdS6gqKSW5eX4+vXNeKa+bm7aZ2vhKMJOQSeSR69Np7eFBC3gmDeTpFJh81zS/GbT67Bn29uwvxKo/DudOLCVH4gDZAHZDVq5TCb6xc48KM7WvH16xvRXmXn/j5ZiM2khcuqn9ZzZS4MRdwlxti0Tpe6EYA8CKbjVhDMO6Cc7kdWV+K5zy3FFy6vxZwyg1ijg2TKD6QAMiDUp6jUZsAW4ek/8McL8JO7FmJ5nR2mdCoQc1FQ9sAuojK2IbOHqjGLjD447Da5L3chVL0TpiKAKLeCYN4Tk8mEz19ehyc+uxzfuakVKxv04oYPKq+qB/3OeZUafGFTHR785EL89M42tJVn74Y0806KzVo0u7gNxGzRich2RX2duA+mfw9TEAHoC2ZYCHPxUJWH3QjctNiFX/zRMjz9+Uvwz7e24MYlpSinF2ZJqU0jooxy/PiONvk7H/zkCiE2NTLnTx4/pxRyB6fVgOayIuUZc7HQtT6vyibvtenQJM4zNua7z3XjW093Kc9mBoUeBn1CeF8OvPylpcoqw7yTc5ccnRehQz8UMdIouwl/BG5/CKdGI/CJtY7RoOxp7havjYt1SguUWE0wiQubDmzRxi45GwuqbbAYptI9TvNUL6qZXPxMdkIDTe7dPoB/eqFHWWFmTkLcEwnZpPHmZWXTOuOqCgBhFFHHklo7nvv8EmWFYWZONBaDOxiXk40m5UnGhGxrG47EZAdSk14H2rstFoaeShz0wt2hskH28PMH6iX2zLEx3H3fEZ4IdpGQU1Ri0eHFLy5DXbEp3ecASEsS8uZlmNmg1+mkJ1/pMKKt3CKiSSuW1NiwqtGBZXV2zK+yynMG9DpNJqOfZeOfX1AL7oYSs2wvwlwcJp0Wi2vsco7FdMafSEk5hJaPAjMMkwQk7Je1FgtbwmcCLgarSYer5hXPyPgTKRAAbgXBMExy0FmAjS0OIQBcUThzErCbgKvmlszYCU+BACS4FQTDMElBG/7zKm2ocpg5CpghVO3WUGKSadKZpkVVFYA35wFwKwiGYZKEmpldNbcMugy2EMklKGq6rNWlPJsZqlpqbgXBMIxaFJm0uGpeCfRag3QtmfNDIlnl0OHy1otraa5uBKC0gqCNCIZhmGSg8xy0ETyv0iJLgJnzQ9HSwmoHLmlyKCszIwURQBS+IEcADMMkD5WE/tmVdbI/EHN+2sutuHNlhfJs5qQgAtBzIyeGYVSBTnRfNc+F9U0W2Iy8t/heVNl12Nhiw+pGu7Iyc9SNAORBsBj382YYRhXIpaRusp/Z2IDaYp1iY5hzUIXUsnob3r+kYlZdbtWNAM5VAek5X8cwjHqsqHdgU1spSot4WtjbmVNmFe+LS5bMzoYURADcCoJhGHUxauP44PJyNJcaOQpQoKEva5qKsLndNes5yqoKwDm4FQTDMGpCnWMX1xbh+oWlaOQZzpLldUW4eq5LiOLs348UCAC3gmAYRl1oshXluG9aUiHPBpQVeCqovsSEW5dVYN0cZ1IlsikQgIRs4cswDKM25O3esqxc9gmig2KFSIlViw8sKcWWeS7ZETcZVH0Hz20C8zAOhmFSxfpmBz60qgyrGmY29SqfoHMRV7U78OFV5XIoUrKoKgBvtoKIchkowzCp4+p5ZfjjdTVoLTNLt7MQoJJPEr0vb6qTMzHUIAUTwTRYWluEhz+5UD4vxGQQdeIjz2Q2dbkMw8yMcDiMR/YN4f881itHiuYz5FxXFgXwyD3r0Fpum3G//+lQdyaw+EvqNFE5tm9JbbFcC4lo4L3/C/kL1Spft8CFT6yrUlYYhkkFI94Ifrt/GF999CRicb2ymn8UmXR47DOLsLBa3bSX6hEA+fwkTib9W2mgQosCqh1m3LW6Bn+xuU5ZYRgmFVC9ybA3jMcPjeFvHz8Lbyi/+pDRQJzm0jh++MEVWNlgl8ZfzZRXCgRgikI9rEGHM2qcRty5sgZ/c22DssowTKqgqkN3III9HSP48qN96J8M50UlInn9G+fY8ddXV6O9ujglKeWUJampIqgQH/GEVnzVqZajYxjmwtC9VmI14NL2Mvzg1iasa7LAYsjt+6/UpsMHFhfjb65rwsLa1Bh/gncpVUZedom4EILCjIAYJhPQSWGLyYjL2krwV1ua8L5FpXDZcnNPoLXcgo+tqcJnNtbKnL9WmzozzQKQEug0NEcADJNu6MTwhpYS3LOhBncsr0BzqVZECLlRIUTp40sai/DJdVX4yOoqLK65+PbOFwsLgMrINNBUHMAwTIag3vh3r63CZy+twvULSlBXbFJeyT6ovn9upQUfXFaKz22sxm3LyzGnLD39jlgAUgBlf2LcEZVhMgoZ1U+sa8D/uaoZH1tbiY0tTlTYs6eHEG0TUmuL64RAfXpDNf7m2ia8f3FZWvscsQCoztR2MMMwmYdSQktq7fjSpjp844Ym3LKkDItqbLAZMze1UC8sf0WRXkQpDnxifRX+6dZ2fFxEK/Uua0rz/e8FC4DK0GE4Cul4C4Bhsgeqn19SY8Vfb6nF926ag01tTplmqXIYZS/9VN+vVKlkN+lkifjCagvuXOnCj+9oxec21sqGbplqoZ+ycwCFTE2xER+9pApfvbpeWWEYJpugcwInhgN4o9uLB/eN4Ei/Tx4iC8cSiMTU6V5ARl+2hBGPEpsBa5scuH6BC0vrbFky0wD4/wFI7+0KVdj1jgAAAABJRU5ErkJggg==;" vertex="1" parent="1">
          <mxGeometry x="190" y="174.16" width="74.55" height="68.33" as="geometry" />
        </mxCell>
        <mxCell id="UsyyJnBBjxE21OxWlk4a-17" value="&lt;h4&gt;IoT Hub&lt;/h4&gt;" style="text;html=1;align=center;verticalAlign=middle;resizable=0;points=[];autosize=1;strokeColor=none;fillColor=none;" vertex="1" parent="1">
          <mxGeometry x="240" y="123" width="70" height="60" as="geometry" />
        </mxCell>
        <mxCell id="UsyyJnBBjxE21OxWlk4a-19" style="edgeStyle=orthogonalEdgeStyle;rounded=0;orthogonalLoop=1;jettySize=auto;html=1;entryX=0.14;entryY=0.581;entryDx=0;entryDy=0;entryPerimeter=0;" edge="1" parent="1" source="UsyyJnBBjxE21OxWlk4a-12" target="UsyyJnBBjxE21OxWlk4a-3">
          <mxGeometry relative="1" as="geometry" />
        </mxCell>
        <mxCell id="UsyyJnBBjxE21OxWlk4a-20" value="&lt;h4&gt;Event Hub&lt;/h4&gt;" style="text;html=1;align=center;verticalAlign=middle;resizable=0;points=[];autosize=1;strokeColor=none;fillColor=none;" vertex="1" parent="1">
          <mxGeometry x="350.77" y="222.63" width="80" height="60" as="geometry" />
        </mxCell>
        <mxCell id="UsyyJnBBjxE21OxWlk4a-33" style="edgeStyle=orthogonalEdgeStyle;rounded=0;orthogonalLoop=1;jettySize=auto;html=1;entryX=0.992;entryY=0.535;entryDx=0;entryDy=0;entryPerimeter=0;" edge="1" parent="1" source="UsyyJnBBjxE21OxWlk4a-2" target="UsyyJnBBjxE21OxWlk4a-6">
          <mxGeometry relative="1" as="geometry" />
        </mxCell>
        <mxCell id="UsyyJnBBjxE21OxWlk4a-36" value="&lt;h4&gt;Storage Acount&lt;/h4&gt;" style="text;html=1;align=center;verticalAlign=middle;resizable=0;points=[];autosize=1;strokeColor=none;fillColor=none;" vertex="1" parent="1">
          <mxGeometry x="330" y="-45" width="110" height="60" as="geometry" />
        </mxCell>
        <mxCell id="UsyyJnBBjxE21OxWlk4a-38" value="&lt;h4&gt;Stream Job&lt;/h4&gt;" style="text;html=1;align=center;verticalAlign=middle;resizable=0;points=[];autosize=1;strokeColor=none;fillColor=none;" vertex="1" parent="1">
          <mxGeometry x="472.4" y="222.63" width="90" height="60" as="geometry" />
        </mxCell>
        <mxCell id="UsyyJnBBjxE21OxWlk4a-39" value="&lt;h4&gt;Power Bi&lt;/h4&gt;" style="text;html=1;align=center;verticalAlign=middle;resizable=0;points=[];autosize=1;strokeColor=none;fillColor=none;" vertex="1" parent="1">
          <mxGeometry x="620.5" y="217.16" width="70" height="60" as="geometry" />
        </mxCell>
        <mxCell id="UsyyJnBBjxE21OxWlk4a-40" value="&lt;h4&gt;Databricks&lt;/h4&gt;" style="text;html=1;align=center;verticalAlign=middle;resizable=0;points=[];autosize=1;strokeColor=none;fillColor=none;" vertex="1" parent="1">
          <mxGeometry x="557.4" y="-5" width="80" height="60" as="geometry" />
        </mxCell>
        <mxCell id="UsyyJnBBjxE21OxWlk4a-42" value="&lt;h4&gt;Key Vault&lt;/h4&gt;" style="text;html=1;align=center;verticalAlign=middle;resizable=0;points=[];autosize=1;strokeColor=none;fillColor=none;" vertex="1" parent="1">
          <mxGeometry x="345" y="340" width="80" height="60" as="geometry" />
        </mxCell>
        <mxCell id="UsyyJnBBjxE21OxWlk4a-43" style="edgeStyle=orthogonalEdgeStyle;rounded=0;orthogonalLoop=1;jettySize=auto;html=1;entryX=0.487;entryY=0.972;entryDx=0;entryDy=0;entryPerimeter=0;" edge="1" parent="1" source="UsyyJnBBjxE21OxWlk4a-3" target="UsyyJnBBjxE21OxWlk4a-2">
          <mxGeometry relative="1" as="geometry">
            <Array as="points">
              <mxPoint x="391" y="130" />
              <mxPoint x="589" y="130" />
            </Array>
          </mxGeometry>
        </mxCell>
      </root>
    </mxGraphModel>
  </diagram>
</mxfile>
